#!OML:ASF F:\VICON\USERDATA\INSTALL\rory3\rory3.ASF
:FULLY-SPECIFIED
:DEGREES
1275
root 12.7074 17.9294 -8.05222 183.389 46.2984 179.28
lowerback 3.43942 1.85909 2.09148
upperback 3.04237 2.62517 1.8105
thorax 1.20338 1.3779 0.626311
lowerneck -7.34326 -0.631924 -3.93218
upperneck 34.6641 4.70959 -4.80974
head 12.8803 2.02359 -0.334131
rclavicle 1.76918e-014 -3.49861e-014
rhumerus -32.1786 -3.11243 -78.3131
rradius 29.6997
rwrist -7.33822
rhand -11.7492 16.6898
rfingers 7.12502
rthumb 14.2986 -12.7979
lclavicle 1.76918e-014 -3.49861e-014
lhumerus -40.9765 -5.27179 87.0043
lradius 49.4775
lwrist 16.6037
lhand -2.91373 27.0526
lfingers 7.12502
lthumb 22.7968 55.7255
rfemur -3.44539 0.039833 25.8434
rtibia 18.1282
rfoot -16.7419 -21.8043
rtoes -11.8015
lfemur -26.6622 3.90945 -24.9381
ltibia 17.6517
lfoot -18.6827 25.1497
ltoes -0.740516
1276
root 12.7511 17.9238 -8.10416 183.452 46.1708 179.288
lowerback 3.38947 1.88399 2.02892
upperback 3.00019 2.65267 1.74483
thorax 1.18824 1.38925 0.594118
lowerneck -7.20227 -0.582039 -3.92162
upperneck 34.5263 4.73596 -4.76499
head 12.7887 2.04755 -0.317406
rclavicle 5.92378e-014 -8.74653e-015
rhumerus -32.3094 -3.31822 -78.3413
rradius 29.7076
rwrist -7.14288
rhand -11.7484 16.5341
rfingers 7.12502
rthumb 14.2994 -12.9536
lclavicle 5.92378e-014 -8.74653e-015
lhumerus -41.0255 -5.39362 87.059
lradius 49.1364
lwrist 16.6041
lhand -2.93669 27.0782
lfingers 7.12502
lthumb 22.7747 55.7538
rfemur -3.31567 -0.0646403 25.8339
rtibia 18.2342
rfoot -16.9094 -21.8998
rtoes -12.0709
lfemur -26.5242 4.45335 -25.3117
ltibia 17.4261
lfoot -20.009 26.4695
ltoes 1.74531
1277
root 12.7932 17.9161 -8.15417 183.435 45.9746 179.171
lowerback 3.35945 1.84803 1.83342
upperback 2.94809 2.59632 1.67879
thorax 1.14537 1.35606 0.636363
lowerneck -7.03465 -0.469928 -3.87656
upperneck 34.3106 4.86581 -4.82365
head 12.6644 2.11005 -0.334544
rclavicle 3.39922e-014 -1.27222e-014
rhumerus -32.4004 -3.16686 -78.4606
rradius 29.6985
rwrist -7.17274
rhand -11.8998 16.2308
rfingers 7.12502
rthumb 14.1535 -13.2671
lclavicle 3.39922e-014 -1.27222e-014
lhumerus -41.1098 -5.3956 87.0828
lradius 48.7774
lwrist 16.4523
lhand -2.89354 26.9129
lfingers 7.12502
lthumb 22.8161 55.5835
rfemur -3.17402 -0.249747 25.7316
rtibia 18.2915
rfoot -17.1241 -21.9684
rtoes -12.069
lfemur -26.4134 4.99482 -25.7781
ltibia 17.3445
lfoot -21.4983 27.5637
ltoes 4.47286
1278
root 12.8371 17.9093 -8.20229 183.476 45.8177 179.087
lowerback 3.27385 1.86038 1.65409
upperback 2.91419 2.60276 1.58601
thorax 1.15455 1.35506 0.643549
lowerneck -6.96908 -0.416203 -3.7223
upperneck 34.2156 4.92706 -4.91098
head 12.6151 2.14957 -0.388564
rclavicle 5.84427e-014 -3.10104e-014
rhumerus -32.4758 -3.11923 -78.6052
rradius 29.6942
rwrist -7.32398
rhand -12.0019 16.0664
rfingers 7.12502
rthumb 14.0552 -13.4383
lclavicle 5.84427e-014 -3.10104e-014
lhumerus -41.1292 -5.52278 87.0936
lradius 48.3832
lwrist 16.3434
lhand -3.06904 26.8022
lfingers 7.12502
lthumb 22.6477 55.4934
rfemur -3.05071 -0.276046 25.6694
rtibia 18.3193
rfoot -17.4019 -22.0069
rtoes -11.8063
lfemur -26.4071 5.52082 -26.1607
ltibia 17.4301
lfoot -23.0322 28.5313
ltoes 7.90791
1279
root 12.8826 17.9011 -8.25217 183.599 45.674 179.162
lowerback 3.17377 1.90034 1.62481
upperback 2.9078 2.65061 1.5105
thorax 1.20617 1.37824 0.585349
lowerneck -6.98339 -0.430922 -3.73379
upperneck 34.2535 4.88728 -4.81222
head 12.6295 2.14262 -0.352999
rclavicle 8.42847e-014 -3.18055e-014
rhumerus -32.5785 -3.28181 -78.668
rradius 29.7047
rwrist -7.24406
rhand -11.8812 16.1635
rfingers 7.12502
rthumb 14.1715 -13.3331
lclavicle 8.42847e-014 -3.18055e-014
lhumerus -41.0777 -5.57182 87.0681
lradius 47.9849
lwrist 16.1578
lhand -3.10099 26.9793
lfingers 7.12502
lthumb 22.617 55.6742
rfemur -2.91303 -0.280249 25.7388
rtibia 18.3884
rfoot -17.6181 -22.1866
rtoes -12.0873
lfemur -26.3571 6.157 -26.4386
ltibia 17.5985
lfoot -23.993 29.2566
ltoes 10.1474
1280
root 12.9292 17.8905 -8.30167 183.725 45.4848 179.221
lowerback 3.05759 1.89111 1.5247
upperback 2.8848 2.63102 1.46194
thorax 1.24512 1.36599 0.595737
lowerneck -6.93953 -0.409555 -3.81336
upperneck 34.231 4.88207 -4.66983
head 12.6038 2.14853 -0.28573
rclavicle -8.13029e-014 -1.27222e-014
rhumerus -32.6256 -3.41771 -78.7002
rradius 29.6196
rwrist -7.00693
rhand -11.784 16.2368
rfingers 7.12502
rthumb 14.2651 -13.2533
lclavicle -8.13029e-014 -1.27222e-014
lhumerus -41.1025 -5.41961 86.955
lradius 47.685
lwrist 15.8244
lhand -2.83983 27.3024
lfingers 7.12502
lthumb 22.8677 55.9666
rfemur -2.81648 -0.26784 25.8086
rtibia 18.5086
rfoot -17.9318 -22.4016
rtoes -12.1801
lfemur -26.2666 6.76755 -26.7275
ltibia 17.8013
lfoot -24.6529 29.6014
ltoes 11.6924
1281
root 12.9785 17.8795 -8.35516 183.753 45.3513 179.145
lowerback 2.90724 1.87108 1.25196
upperback 2.87073 2.5926 1.40426
thorax 1.30509 1.34124 0.694804
lowerneck -6.88982 -0.352948 -3.76359
upperneck 34.1358 4.93273 -4.6703
head 12.5534 2.17769 -0.289843
rclavicle 7.94145e-014 6.36111e-015
rhumerus -32.6425 -3.38672 -78.7935
rradius 29.5247
rwrist -6.94866
rhand -11.8058 16.1592
rfingers 7.12502
rthumb 14.2441 -13.3324
lclavicle 7.94145e-014 6.36111e-015
lhumerus -41.206 -5.17823 86.8129
lradius 47.4362
lwrist 15.4821
lhand -2.7395 27.5224
lfingers 7.12502
lthumb 22.964 56.1746
rfemur -2.73878 -0.28473 25.7498
rtibia 18.7111
rfoot -18.3469 -22.4469
rtoes -12.0616
lfemur -26.1168 7.44055 -27.1167
ltibia 18.0117
lfoot -24.8 29.8894
ltoes 12.5535
